<?xml version="1.0" encoding="UTF-8" standalone="no"?>
<!-- Created with Inkscape (http://www.inkscape.org/) -->

<svg
   xmlns:dc="http://purl.org/dc/elements/1.1/"
   xmlns:cc="http://creativecommons.org/ns#"
   xmlns:rdf="http://www.w3.org/1999/02/22-rdf-syntax-ns#"
   xmlns:svg="http://www.w3.org/2000/svg"
   xmlns="http://www.w3.org/2000/svg"
   xmlns:sodipodi="http://sodipodi.sourceforge.net/DTD/sodipodi-0.dtd"
   xmlns:inkscape="http://www.inkscape.org/namespaces/inkscape"
   width="230mm"
   height="230mm"
   viewBox="0 0 814.96064 814.96051"
   id="svg2"
   version="1.1"
   inkscape:version="0.91 r13725"
   sodipodi:docname="favico.svg"
   inkscape:export-filename="/data/experiments/organisationsliberees.org/images/favico.png"
   inkscape:export-xdpi="15.46087"
   inkscape:export-ydpi="15.46087">
  <defs
     id="defs4" />
  <sodipodi:namedview
     id="base"
     pagecolor="#ffffff"
     bordercolor="#666666"
     borderopacity="1.0"
     inkscape:pageopacity="0.0"
     inkscape:pageshadow="2"
     inkscape:zoom="0.42776825"
     inkscape:cx="269.03047"
     inkscape:cy="375.4184"
     inkscape:document-units="px"
     inkscape:current-layer="layer1"
     showgrid="false"
     showguides="true"
     inkscape:guide-bbox="true"
     fit-margin-top="-2"
     fit-margin-left="0"
     fit-margin-right="0"
     fit-margin-bottom="-2"
     inkscape:window-width="1600"
     inkscape:window-height="836"
     inkscape:window-x="0"
     inkscape:window-y="27"
     inkscape:window-maximized="1"
     showborder="true">
    <sodipodi:guide
       position="-543.53861,-199.46829"
       orientation="0,1"
       id="guide4181" />
  </sodipodi:namedview>
  <metadata
     id="metadata7">
    <rdf:RDF>
      <cc:Work
         rdf:about="">
        <dc:format>image/svg+xml</dc:format>
        <dc:type
           rdf:resource="http://purl.org/dc/dcmitype/StillImage" />
        <dc:title></dc:title>
      </cc:Work>
    </rdf:RDF>
  </metadata>
  <g
     inkscape:label="Calque 1"
     inkscape:groupmode="layer"
     id="layer1"
     transform="translate(-219.22134,549.93323)">
    <g
       transform="matrix(0.23247403,0,0,0.21706427,36.431822,347.53179)"
       id="flowRoot4498" />
    <path
       style="fill:#ffe16e;fill-opacity:1"
       inkscape:connector-curvature="0"
       d="m 289.81461,-520.46062 673.77422,0 c 37.53017,0 67.74497,28.24067 67.74497,63.31922 l 0,629.7552 c 0,35.07855 -30.2148,63.31927 -67.74497,63.31927 l -673.77422,0 c -37.53044,0 -67.74513,-28.24072 -67.74513,-63.31927 l 0,-629.7552 c 0,-35.07855 30.21469,-63.31922 67.74513,-63.31922 z"
       id="rect3326" />
    <path
       d="m 624.54102,-397.7207 c -74.55634,-0.83553 -149.67118,40.89008 -184.49738,107.49379 -32.93689,59.42742 -40.4825,129.89217 -32.35028,196.394879 8.75358,64.723008 39.5977,129.378369 94.01562,167.845703 60.96012,43.402658 144.42181,51.131028 212.77649,21.045163 47.76489,-20.48699 87.52257,-58.944068 107.76977,-106.996974 30.41601,-67.069068 33.27205,-144.260541 16.01673,-215.384691 -13.76063,-53.00881 -43.76808,-103.58085 -90.42431,-134.18303 -36.21292,-24.19271 -79.86764,-36.70824 -123.30664,-36.21484 z m 3.21484,56.19336 c 65.72065,-1.00543 127.68487,47.73699 144.35221,110.95224 18.97571,59.28571 17.47164,124.44455 -1.2819,183.571194 C 754.39908,-1.8692928 718.22649,37.781381 671.10939,50.934086 612.87615,68.714651 543.61805,48.543653 507.39045,-1.2497758 475.96103,-42.02717 465.98315,-95.311813 468.23593,-145.78873 c 0.85307,-46.14137 8.21869,-94.53722 34.81783,-133.40227 28.40601,-39.13656 76.48526,-62.66526 124.7021,-62.33634 z"
       id="flowRoot5470"
       inkscape:connector-curvature="0" />
    <path
       style="fill:#008080"
       d="m 889.65672,-525.68304 c -50.70567,0.27876 -97.92125,26.06194 -134.02546,60.23698 -35.31296,30.77508 -52.51775,77.01084 -59.12579,122.32921 -8.39184,48.34548 -7.99643,97.67821 -5.60851,146.52756 -58.15224,4.69106 -118.42463,10.54538 -174.52436,-8.84148 -30.58827,-10.31495 -62.60898,-21.27341 -86.06353,-44.38704 -11.55547,-12.96776 -17.86917,-34.02288 -6.68164,-49.0664 5.63532,-5.33447 15.4683,-8.04452 16.29687,-17.06836 1.33397,-9.23416 0.1401,-18.54023 0.32031,-27.78125 -0.80922,-6.11984 -3.76787,-13.97913 -10.54687,-15.12891 -30.16319,5.58155 -60.56266,22.89101 -73.11133,52.07227 -13.82618,36.41909 1.26438,78.7158 29.25789,104.13013 38.2027,35.66418 88.9963,53.09258 138.34722,66.97746 53.43747,12.15223 108.63798,7.24907 162.81872,4.73225 C 670.34118,-61.974866 628.2252,-1.72551 576.34986,45.679806 564.32812,57.249795 551.93481,68.426998 539.40282,79.44 496.37105,66.170953 454.71143,46.108504 409.52586,40.691958 354.22836,37.40753 296.95879,57.013077 257.56905,96.42374 c -15.34272,17.13466 -23.90056,43.02099 -14.00802,64.94986 10.85524,25.51503 36.53431,40.1807 60.83627,50.70577 32.90793,14.12718 70.63777,14.90043 104.70816,4.49349 45.35117,-11.67362 86.76876,-34.19043 130.1372,-51.24614 58.60329,30.22415 118.58726,61.62982 184.54484,71.99114 74.6787,11.24373 151.8519,-5.57707 218.62167,-39.69628 26.63756,-12.84163 52.41926,-31.4944 65.33543,-58.90618 7.9063,-16.19324 9.7645,-36.36686 0.1543,-52.28516 -6.0567,-11.52372 -17.73172,-18.244824 -29.53488,-22.608244 -26.03103,-10.116259 -54.49845,-11.026267 -82.06666,-11.565585 -12.42127,0.431499 -26.99483,5.83136 -30.76953,18.906249 -4.52574,13.61131 3.48756,30.89522 18.16015,33.72852 18.44213,6.68019 38.52003,2.87797 57.15821,8.12109 -21.83035,26.8435 -56.15788,38.76033 -88.05187,48.66257 -58.1744,17.91417 -122.40852,15.94796 -178.27809,-8.65968 -22.41591,-10.21611 -43.96898,-22.17155 -65.07434,-34.82516 49.04524,-43.52704 95.32026,-93.619548 119.23529,-155.717675 13.19414,-32.411139 22.29757,-66.299215 30.29986,-100.309665 71.99492,-13.83201 142.83925,-46.82317 190.77239,-103.6702 41.15781,-48.34144 65.98897,-113.4418 56.76997,-177.28453 -6.87168,-44.6233 -37.16432,-87.25399 -81.08712,-101.47378 -11.50721,-3.80238 -23.6635,-5.58839 -35.77556,-5.41719 z m -16.97265,74.45703 c 20.46629,0.34831 44.46066,2.21196 58.52734,19.30859 13.59817,25.00846 9.24098,55.72813 -1.5085,80.91182 -21.61124,49.78441 -63.53694,87.94696 -109.85861,114.59215 -16.15671,9.35605 -33.54268,16.74908 -51.35359,22.46283 1.50076,-56.97076 -1.34695,-115.86438 19.30949,-169.8723 12.26378,-32.77496 40.25537,-62.48046 76.24129,-66.9402 2.86863,-0.32765 5.75549,-0.47796 8.64258,-0.46289 z M 372.76611,107.81696 c 31.13246,0.14276 61.79441,7.70106 90.94531,17.93359 -37.08976,15.14405 -74.83106,32.52603 -115.13774,35.07399 -13.83351,-0.64095 -30.08397,-4.91239 -36.74507,-18.19704 -0.36533,-11.95278 11.86535,-18.62925 20.58008,-24.29882 12.29565,-7.03507 26.4841,-10.36744 40.35742,-10.51172 z"
       id="path3352"
       inkscape:connector-curvature="0" />
    <path
       d="m 465.69141,-104.55273 c -19.7499,0.87784 -39.52171,0.2219 -59.28125,0.28711 7.18087,67.65108 37.86013,136.109299 94.13476,176.904292 73.6819,53.381368 180.68191,53.228298 254.21485,-0.601563 40.11227,-29.013602 68.36387,-72.89105775 81.20672,-120.594857 5.39323,-17.932841 9.28897,-36.31007 10.32257,-55.065302 -10.59901,-2.81861 -21.54318,1.22437 -32.30071,-0.40524 -10.12333,-0.0784 -20.25281,-0.58717 -30.37312,-0.10062 -4.68112,49.724515 -25.73897,100.2297953 -66.21389,131.217918 -57.16467,44.070236 -147.00879,38.504103 -197.04587,-14.032367 -30.8544,-31.238266 -47.06415,-74.568022 -50.89649,-117.798831 -1.25586,0.0631 -2.51171,0.1263 -3.76757,0.18946 z"
       id="flowRoot5470-6"
       inkscape:connector-curvature="0" />
  </g>
</svg>
