<?xml version="1.0" encoding="UTF-8" standalone="no"?>
<!-- Created with Inkscape (http://www.inkscape.org/) -->

<svg
   xmlns:dc="http://purl.org/dc/elements/1.1/"
   xmlns:cc="http://creativecommons.org/ns#"
   xmlns:rdf="http://www.w3.org/1999/02/22-rdf-syntax-ns#"
   xmlns:svg="http://www.w3.org/2000/svg"
   xmlns="http://www.w3.org/2000/svg"
   xmlns:sodipodi="http://sodipodi.sourceforge.net/DTD/sodipodi-0.dtd"
   xmlns:inkscape="http://www.inkscape.org/namespaces/inkscape"
   width="1500mm"
   height="500mm"
   viewBox="0 0 5314.9607 1771.6535"
   id="svg2"
   version="1.1"
   inkscape:version="0.91 r13725"
   sodipodi:docname="logo_big.svg"
   inkscape:export-filename="/data/experiments/organisationsliberees.org/images/logo_big.png"
   inkscape:export-xdpi="62"
   inkscape:export-ydpi="62">
  <defs
     id="defs4" />
  <sodipodi:namedview
     id="base"
     pagecolor="#ffffff"
     bordercolor="#666666"
     borderopacity="1.0"
     inkscape:pageopacity="0.0"
     inkscape:pageshadow="2"
     inkscape:zoom="0.12374369"
     inkscape:cx="2973.2518"
     inkscape:cy="383.80954"
     inkscape:document-units="px"
     inkscape:current-layer="layer1"
     showgrid="false"
     showguides="true"
     inkscape:guide-bbox="true"
     fit-margin-top="0.2"
     fit-margin-left="0.2"
     fit-margin-right="0.2"
     fit-margin-bottom="0.2"
     inkscape:window-width="1600"
     inkscape:window-height="836"
     inkscape:window-x="0"
     inkscape:window-y="27"
     inkscape:window-maximized="1">
    <sodipodi:guide
       position="-340.71992,36.422937"
       orientation="0,1"
       id="guide4181" />
    <sodipodi:guide
       position="-371.73616,751.55348"
       orientation="0,1"
       id="guide3362" />
  </sodipodi:namedview>
  <metadata
     id="metadata7">
    <rdf:RDF>
      <cc:Work
         rdf:about="">
        <dc:format>image/svg+xml</dc:format>
        <dc:type
           rdf:resource="http://purl.org/dc/dcmitype/StillImage" />
        <dc:title />
      </cc:Work>
    </rdf:RDF>
  </metadata>
  <g
     inkscape:label="Calque 1"
     inkscape:groupmode="layer"
     id="layer1"
     transform="translate(-16.402654,1270.7349)">
    <rect
       style="opacity:1;fill:#ffffff;fill-opacity:1;stroke:none;stroke-width:4.80000019;stroke-miterlimit:4;stroke-dasharray:none;stroke-opacity:0.39442234"
       id="rect4970"
       width="5309.3623"
       height="1765.7467"
       x="24.483879"
       y="-1264.8281" />
    <g
       transform="matrix(0.23247403,0,0,0.21706427,33.583687,378.85741)"
       id="flowRoot4498" />
    <g
       id="g3347"
       transform="translate(0,-153.5432)">
      <path
         id="rect3326"
         d="m 1051.0321,-707.84881 511.4155,0 c 28.4867,0 51.4206,22.93384 51.4206,51.42062 l 0,511.41548 c 0,28.48677 -22.9339,51.42067 -51.4206,51.42067 l -511.4155,0 c -28.4868,0 -51.42067,-22.9339 -51.42067,-51.42067 l 0,-511.41548 c 0,-28.48678 22.93387,-51.42062 51.42067,-51.42062 z"
         inkscape:connector-curvature="0"
         style="fill:#ffe16e;fill-opacity:1" />
      <path
         id="flowRoot4964"
         d="m 1541.1906,-136.43489 -9.8014,0 0,-56.73598 c -2.3607,2.0443 -5.4523,4.09135 -9.2832,6.13285 -3.831,2.04155 -7.27,3.57885 -10.3195,4.60098 l 0,-8.6055 c 5.4804,-2.34116 10.2719,-5.17802 14.3744,-8.50759 4.1026,-3.32976 7.0066,-6.56138 8.712,-9.69504 l 6.3177,0 0,72.81028 z"
         inkscape:connector-curvature="0" />
      <path
         id="flowRoot5470"
         d="m 1139.4329,-391.94633 c 0,-66.83509 15.792,-119.15232 47.3758,-156.96614 31.5839,-37.80666 72.3564,-56.71357 122.3077,-56.71357 32.707,0 62.1995,8.8788 88.4678,26.63635 26.2585,17.76473 46.2817,42.52615 60.0597,74.29152 13.7876,31.77248 20.6718,67.79763 20.6718,108.08255 0,40.83088 -7.2521,77.36607 -21.7466,109.58393 -14.5041,32.22509 -35.0598,56.62021 -61.6476,73.19242 -26.5878,16.57232 -55.2669,24.85484 -86.0472,24.85484 -33.3557,0 -63.1677,-9.15176 -89.436,-27.46238 -26.2682,-18.31075 -46.1655,-43.30204 -59.7015,-74.98116 -13.5359,-31.67196 -20.3039,-65.18286 -20.3039,-100.51836 l 0,0 z m 48.3441,0.81892 c 0,48.52434 11.4833,86.74045 34.4498,114.66262 22.9666,27.92933 51.7716,41.88683 86.4152,41.88683 35.2922,0 64.3393,-14.09394 87.1412,-42.29629 22.802,-28.20235 34.2078,-68.19991 34.2078,-120.0215 0,-32.77822 -4.8799,-61.3828 -14.63,-85.82818 -9.7502,-24.44539 -24.0026,-43.39539 -42.7767,-56.85002 -18.7741,-13.45468 -39.8429,-20.18561 -63.2065,-20.18561 -33.1911,0 -61.7541,12.95181 -85.6889,38.86267 -23.9445,25.91079 -35.9119,69.1625 -35.9119,129.76948 l 0,0 z"
         inkscape:connector-curvature="0" />
      <path
         sodipodi:nodetypes="acssccascaacacaccazsaacssccaac"
         inkscape:connector-curvature="0"
         id="path3352"
         d="m 3457.758,-40.258848 c -83.6851,14.50089 -147.5516,-19.53159 -241.8037,-80.325992 -32.4662,10.52554 -130.0239,84.124551 -188.9336,60.425705 -151.3358,-60.881125 11.2701,-178.737885 97.2517,-143.529925 l 94.3357,38.6288 c 81.7293,-85.44945 132.1405,-155.02727 149.1933,-273.53101 -98.6714,6.09107 -135.5154,11.26736 -195.3504,-14.89809 -43.6204,-19.07498 -91.8313,-46.06975 -104.664,-97.18442 -25.9873,-103.51151 119.0479,-99.52983 65.2955,-77.947 -46.2435,6.99772 -47.5452,43.18418 -42.4539,69.992 9.3866,49.4249 72.4652,75.26923 120.1298,91.36295 49.7976,16.8139 157.6788,0.16436 157.6788,0.16436 0,0 -17.5559,-199.57023 36.4696,-274.35141 32.3266,-44.74605 89.931,-92.33541 148.9968,-72.28374 65.0058,32.80417 68.9755,121.05133 51.6753,181.54487 -26.0174,90.97525 -91.3921,166.02837 -210.3163,190.6506 -29.116,156.36771 -56.5445,199.0835 -148.3972,297.54052 76.2646,56.103172 119.3122,80.295627 186.5411,77.230578 59.2104,-2.699459 140.902,-38.304448 157.4211,-82.686218 16.5191,-44.38177 -88.3231,-15.54309 -66.5229,-45.86953 3.1959,-4.44589 88.1879,-2.92645 94.0873,29.39725 12.2059,66.87908 -93.6484,114.062511 -160.634,125.669761 z M 3193.6725,-140.0015 c 0,0 -108.4452,-63.40875 -164.229,-31.05266 -66.7616,38.72359 -29.5653,96.238264 26.4174,90.505313 36.0433,-3.69104 137.8116,-59.452653 137.8116,-59.452653 z m 206.0799,-336.62796 c 114.9947,-28.01468 220.2599,-170.03043 180.4297,-270.97199 -13.1467,-33.31779 -73.9346,-43.21131 -104.5821,-24.67375 -87.0541,52.65568 -71.18,201.13168 -75.8476,295.64574 z"
         style="fill:#008080" />
      <text
         sodipodi:linespacing="125%"
         id="text3374"
         y="-250.26471"
         x="3429.6638"
         style="font-style:normal;font-weight:normal;font-size:71.71942139px;line-height:125%;font-family:Sans;letter-spacing:0px;word-spacing:0px;fill:#000000;fill-opacity:1;stroke:none;stroke-width:1px;stroke-linecap:butt;stroke-linejoin:miter;stroke-opacity:1"
         xml:space="preserve"><tspan
           style="font-size:268.94784546px"
           y="-250.26471"
           x="3429.6638"
           id="tspan3376"
           sodipodi:role="line">ibérées</tspan></text>
      <flowRoot
         style="font-style:normal;font-weight:normal;font-size:12px;line-height:125%;font-family:Sans;letter-spacing:0px;word-spacing:0px;fill:#000000;fill-opacity:1;stroke:none;stroke-width:1px;stroke-linecap:butt;stroke-linejoin:miter;stroke-opacity:1"
         id="flowRoot3366"
         xml:space="preserve"
         transform="matrix(5.9766185,0,0,5.9766185,675.99462,-1294.7842)"><flowRegion
           id="flowRegion3368"><rect
             style="fill:#000000;fill-opacity:1"
             y="129.80876"
             x="137.14285"
             height="94.285713"
             width="280"
             id="rect3370" /></flowRegion><flowPara
           style="font-size:45px;fill:#000000;fill-opacity:1"
           id="flowPara3372">rganisations</flowPara></flowRoot>      <path
         inkscape:connector-curvature="0"
         id="path4896"
         d="m 1089.4116,-91.280826 -49.6855,-0.64416 -8.2824,-4.094821 c -10.8036,-5.341303 -18.4354,-12.955633 -23.737,-23.682593 l -4.0388,-8.17207 -0.9075,-30.05163 c -1.3404,-44.38685 -0.2642,-497.93902 1.2013,-506.32187 0.6422,-3.6733 2.4402,-9.19633 3.9956,-12.27342 3.9882,-7.88985 14.593,-17.75217 24.7974,-23.06107 l 8.481,-4.41232 267.4745,0 267.4745,0 8.7604,4.40462 c 11.2487,5.65576 21.2579,15.49513 26.1666,25.72283 l 3.4467,7.18151 0,269.61466 0,269.61464 -3.8514,7.32931 c -4.4703,8.50699 -17.0711,21.204381 -25.5103,25.705731 l -5.324,2.83973 -220.3878,0.472751 c -121.2133,0.259983 -242.7463,0.182884 -270.0733,-0.171529 z m 450.378,-48.937394 c 2.6243,-9.4923 2.671,-63.28091 0.059,-67.50787 -1.3765,-2.22719 -4.5041,-0.40103 -16.2999,9.51675 -10.3274,8.68325 -13.1825,12.02095 -11.9661,13.98899 1.0817,1.75031 3.2571,1.20656 10.706,-2.67615 3.9267,-2.0467 7.5636,-3.45915 8.082,-3.13874 0.5184,0.32034 0.9425,12.56082 0.9425,27.2009 l 0,26.61831 3.6852,0 c 3.3503,0 3.7858,-0.36398 4.7917,-4.00219 z m -200.0535,-52.01803 c 43.6424,-7.79046 85.6705,-38.58977 108.9148,-79.81561 20.8919,-37.05363 30.7049,-83.4361 28.8394,-136.31375 -1.3579,-38.49205 -6.8756,-65.34247 -19.5029,-94.9057 -16.0985,-37.69038 -44.6481,-69.08485 -78.1815,-85.972 -11.3991,-5.74047 -30.915,-11.88556 -44.3342,-13.9597 -14.6865,-2.27003 -51.2545,-1.62912 -62.4343,1.09427 -41.9255,10.21296 -73.9806,33.0535 -98.1585,69.94174 -16.6171,25.35272 -27.4596,56.79586 -32.7536,94.98555 -2.3284,16.79617 -2.6312,62.66249 -0.5144,77.90949 4.0675,29.29785 11.1894,53.32127 22.622,76.30861 25.0183,50.30361 68.9426,84.34329 119.0871,92.28795 9.1899,1.45603 45.0778,0.46319 56.416,-1.56085 z m 204.4686,-58.44268 c 0.047,-0.14673 0.4832,-21.1583 0.9699,-46.69233 0.9705,-50.92155 1.4024,-54.5591 7.6287,-64.26198 8.956,-13.95681 21.9758,-19.03315 42.7557,-16.67025 5.7806,0.65733 10.7745,0.93087 11.0975,0.60787 0.3234,-0.32304 0.2463,-5.67496 -0.1697,-11.89325 l -0.7574,-11.30597 -10.26,0.0185 c -19.2823,0.0347 -31.0613,4.14894 -43.1713,15.07868 l -7.0263,6.34151 -0.3091,-9.38528 -0.309,-9.38534 -12.5403,-0.30069 -12.5402,-0.30068 0,74.20797 0,74.20798 12.2734,0 c 6.7504,0 12.3117,-0.12007 12.3584,-0.2668 z"
         style="opacity:1;fill:#ffffaa;fill-opacity:0;stroke:none;stroke-width:4.80000019;stroke-miterlimit:4;stroke-dasharray:none;stroke-opacity:0.39442234" />
    </g>
  </g>
</svg>
