<?xml version="1.0" encoding="UTF-8" standalone="no"?>
<!-- Created with Inkscape (http://www.inkscape.org/) -->

<svg
   xmlns:dc="http://purl.org/dc/elements/1.1/"
   xmlns:cc="http://creativecommons.org/ns#"
   xmlns:rdf="http://www.w3.org/1999/02/22-rdf-syntax-ns#"
   xmlns:svg="http://www.w3.org/2000/svg"
   xmlns="http://www.w3.org/2000/svg"
   xmlns:sodipodi="http://sodipodi.sourceforge.net/DTD/sodipodi-0.dtd"
   xmlns:inkscape="http://www.inkscape.org/namespaces/inkscape"
   width="350mm"
   height="350mm"
   viewBox="0 0 1240.1575 1240.1573"
   id="svg2"
   version="1.1"
   inkscape:version="0.91 r13725"
   sodipodi:docname="twitter_favico.svg"
   inkscape:export-filename="/data/experiments/organisationsliberees.org/images/favico.png"
   inkscape:export-xdpi="62"
   inkscape:export-ydpi="62">
  <defs
     id="defs4" />
  <sodipodi:namedview
     id="base"
     pagecolor="#ffffff"
     bordercolor="#666666"
     borderopacity="1.0"
     inkscape:pageopacity="0.0"
     inkscape:pageshadow="2"
     inkscape:zoom="0.30247783"
     inkscape:cx="382.04477"
     inkscape:cy="526.0231"
     inkscape:document-units="px"
     inkscape:current-layer="layer1"
     showgrid="false"
     showguides="true"
     inkscape:guide-bbox="true"
     fit-margin-top="0.2"
     fit-margin-left="0.2"
     fit-margin-right="0.2"
     fit-margin-bottom="0.2"
     inkscape:window-width="1600"
     inkscape:window-height="836"
     inkscape:window-x="0"
     inkscape:window-y="27"
     inkscape:window-maximized="1">
    <sodipodi:guide
       position="-328.09203,44.644933"
       orientation="0,1"
       id="guide4181" />
  </sodipodi:namedview>
  <metadata
     id="metadata7">
    <rdf:RDF>
      <cc:Work
         rdf:about="">
        <dc:format>image/svg+xml</dc:format>
        <dc:type
           rdf:resource="http://purl.org/dc/dcmitype/StillImage" />
        <dc:title></dc:title>
      </cc:Work>
    </rdf:RDF>
  </metadata>
  <g
     inkscape:label="Calque 1"
     inkscape:groupmode="layer"
     id="layer1"
     transform="translate(-3.7747607,731.01683)">
    <g
       transform="matrix(0.23247403,0,0,0.21706427,33.583687,378.85741)"
       id="flowRoot4498" />
    <path
       style="fill:#ffe16e;fill-opacity:1"
       inkscape:connector-curvature="0"
       d="m 443.49776,-380.59563 527.14176,0 c 29.36268,0 53.00188,22.09469 53.00188,49.53915 l 0,492.70257 c 0,27.44446 -23.6392,49.5392 -53.00188,49.5392 l -527.14176,0 c -29.36275,0 -53.00187,-22.09474 -53.00187,-49.5392 l 0,-492.70257 c 0,-27.44446 23.63912,-49.53915 53.00187,-49.53915 z"
       id="rect3326" />
    <path
       inkscape:connector-curvature="0"
       d="m 532.41682,-79.542352 c 0,-64.389588 16.27754,-114.792518 48.83264,-151.222688 32.5551,-36.42333 74.58131,-54.63845 126.06867,-54.63845 33.71279,0 64.11217,8.55394 91.18822,25.66175 27.06603,17.11472 47.7049,40.9701 61.90658,71.57316 14.21164,30.60991 21.30752,65.3169 21.30752,104.127757 0,39.336883 -7.47512,74.5352316 -22.4153,105.574238 -14.95019,31.04596 -36.13796,54.548416 -63.54333,70.514267 -27.40538,15.965908 -56.96642,23.945408 -88.69319,23.945408 -34.38146,0 -65.1102,-8.81689 -92.18623,-26.457573 -27.07601,-17.640738 -47.58512,-41.71757 -61.53731,-72.237562 -13.95218,-30.513037 -20.92827,-62.797776 -20.92827,-96.840307 l 0,0 z m 49.83065,0.788926 c 0,46.748799 11.83641,83.5665625 35.50921,110.467089 23.67281,26.907372 53.36362,40.354158 89.07243,40.354158 36.37746,0 66.3178,-13.578265 89.82095,-40.748648 23.50315,-27.1704384 35.25968,-65.704432 35.25968,-115.629853 0,-31.57888 -5.02997,-59.1368 -15.07996,-82.68772 -10.04993,-23.55092 -24.74064,-41.80754 -44.09205,-54.76987 -19.35146,-12.96232 -41.06816,-19.44699 -65.15014,-19.44699 -34.21179,0 -63.6531,12.47792 -88.32391,37.44066 -24.6808,24.96274 -37.01621,66.63184 -37.01621,125.021174 l 0,0 z"
       id="flowRoot5470" />
    <path
       style="fill:#008080"
       d="m 941.13062,-535.45701 c -64.24985,-0.58182 -123.65216,42.63141 -159.4451,83.64788 -70.896,81.24239 -47.85413,298.05638 -47.85413,298.05638 0,0 -141.57353,18.08484 -206.92148,-0.1818 -62.54894,-17.48423 -145.33084,-45.55701 -157.64858,-99.25232 -5.18365,-22.59645 -5.17691,-51.26277 23.36635,-66.55682 l 0,-17.09106 c -33.6658,10.75216 -69.86757,37.7731 -53.33522,92.28971 16.83993,55.53108 80.10709,84.86086 137.34887,105.58393 78.51966,28.42619 126.87113,22.79923 256.35478,16.18193 C 710.61827,5.9634229 644.45941,81.557218 537.20848,174.38954 L 413.4194,132.42122 C 300.5883,94.171271 87.203474,222.2066 285.797,288.3479 c 77.30544,25.74652 205.32846,-54.21279 247.93285,-65.6477 123.6842,66.04707 207.49341,103.02725 317.31095,87.27359 87.90315,-12.61011 226.8068,-63.86795 210.7893,-136.52546 -7.7415,-35.11654 -119.27475,-36.77681 -123.46868,-31.94682 -28.60777,32.94673 108.97518,1.62369 87.29768,49.84005 -21.6775,48.21642 -128.87819,86.89706 -206.57821,89.82978 C 730.85831,284.50118 674.37473,258.21731 574.29486,197.26675 694.83045,90.302977 730.82169,43.890348 769.02973,-125.98773 925.09046,-152.73728 1010.8786,-234.2665 1045.0205,-333.1021 c 22.7025,-65.7202 17.4947,-161.5935 -67.81051,-197.2319 -12.11098,-3.40377 -24.1813,-5.01529 -36.07937,-5.12301 z m -20.50564,40.17148 c 37.79201,-0.93891 79.20156,11.9174 91.06242,36.80254 52.2679,109.66305 -85.86043,263.942 -236.76458,294.37723 6.12515,-102.68024 -14.70829,-263.98521 99.53014,-321.19036 12.56808,-6.2935 28.9938,-9.56261 46.17202,-9.98941 z M 336.04267,157.92948 c 74.49452,-1.80094 168.43917,43.67956 168.43917,43.67956 0,0 -133.54473,60.57891 -180.84327,64.58887 -73.46455,6.22828 -122.26978,-56.25238 -34.66044,-98.32179 13.72559,-6.59095 29.87349,-9.53107 47.06454,-9.94664 z"
       id="path3352"
       inkscape:connector-curvature="0" />
    <path
       d="m 533.81421,-53.146767 c 2.61306,24.887334 9.15447,48.7928226 19.62454,71.690565 13.95221,30.519991 34.46382,54.595291 61.53982,72.236028 27.07599,17.640684 57.80234,26.449414 92.18379,26.449414 31.72684,0 61.28841,-7.97014 88.69378,-23.936044 27.40538,-15.965851 48.59215,-39.468088 63.54234,-70.514049 11.07914,-23.01750168 18.03003,-48.342257 20.89466,-75.925914 l -49.87949,0 c -3.90088,35.660577 -15.09813,64.248202 -33.66493,85.712111 -23.50315,27.170383 -53.44917,40.749031 -89.82662,40.749031 -35.70881,0 -65.39858,-13.456643 -89.0714,-40.364014 -19.39452,-22.038943 -30.83497,-50.737511 -34.34008,-86.097128 l -49.69641,0 z"
       id="flowRoot5470-6"
       inkscape:connector-curvature="0" />
  </g>
</svg>
